<?xml version="1.0" standalone="no"?>
<!DOCTYPE svg PUBLIC "-//W3C//DTD SVG 20010904//EN"
 "http://www.w3.org/TR/2001/REC-SVG-20010904/DTD/svg10.dtd">
<svg version="1.0" xmlns="http://www.w3.org/2000/svg"
 width="125.000000pt" height="125.000000pt" viewBox="0 0 125.000000 125.000000"
 preserveAspectRatio="xMidYMid meet">
<metadata>
Created by potrace 1.14, written by Peter Selinger 2001-2017
</metadata>
<g transform="translate(0.000000,125.000000) scale(0.100000,-0.100000)"
fill="#000000" stroke="none">
<path d="M413 1175 c-84 -27 -152 -61 -160 -80 -3 -8 -8 -13 -12 -10 -20 12
-178 -175 -185 -219 -1 -6 -5 -17 -10 -25 -24 -38 -43 -154 -41 -243 2 -51 6
-102 8 -113 11 -45 52 -142 74 -178 21 -33 22 -41 11 -55 -11 -15 -11 -15 4
-4 14 11 19 9 37 -16 11 -16 17 -32 13 -36 -4 -4 -2 -7 3 -6 22 5 35 -1 35
-16 0 -8 4 -13 9 -10 5 4 11 3 13 -2 6 -15 103 -72 157 -93 107 -40 228 -47
344 -20 56 13 168 72 200 104 15 15 27 25 27 21 0 -9 63 58 90 96 12 16 18 35
14 41 -4 7 -3 9 4 5 12 -7 53 75 73 149 22 85 17 266 -10 339 -6 15 -8 32 -5
38 4 7 2 8 -4 4 -8 -5 -12 0 -12 13 0 12 -4 21 -9 21 -5 0 -11 9 -14 20 -5 18
0 20 45 20 59 0 104 23 111 57 7 35 -16 48 -61 34 -20 -6 -64 -13 -97 -15
l-59 -3 -54 54 c-30 29 -60 53 -68 53 -8 0 -14 4 -14 9 0 12 -104 57 -173 74
-83 22 -202 18 -284 -8z"/>
<path d="M1106 872 c-2 -4 4 -8 14 -8 10 0 16 4 14 8 -3 4 -9 8 -14 8 -5 0
-11 -4 -14 -8z"/>
<path d="M1170 866 c0 -2 8 -10 18 -17 15 -13 16 -12 3 4 -13 16 -21 21 -21
13z"/>
</g>
</svg>
